<svg width="323" height="316" viewBox="0 0 323 316" fill="none" xmlns="http://www.w3.org/2000/svg">
<g filter="url(#filter0_d_4067_10)">
<path d="M161.325 0.662109C248.247 0.662109 318.65 71.065 318.65 157.987C318.642 190.951 308.296 223.082 289.07 249.857C269.843 276.633 242.704 296.706 211.472 307.249C203.606 308.822 200.656 303.906 200.656 299.776C200.656 294.467 200.853 277.554 200.853 256.512C200.853 241.763 195.937 232.323 190.233 227.407C225.238 223.474 262.013 210.101 262.013 149.728C262.013 132.422 255.917 118.459 245.887 107.446C247.46 103.513 252.967 87.3875 244.314 65.7553C244.314 65.7553 231.138 61.4289 201.05 81.8811C188.464 78.3413 175.091 76.5714 161.718 76.5714C148.346 76.5714 134.973 78.3413 122.387 81.8811C92.2987 61.6255 79.1227 65.7553 79.1227 65.7553C70.4698 87.3875 75.9762 103.513 77.5495 107.446C67.52 118.459 61.4236 132.618 61.4236 149.728C61.4236 209.904 98.0017 223.474 133.007 227.407C128.483 231.34 124.354 238.223 122.977 248.449C113.931 252.579 91.3154 259.265 77.1561 235.47C74.2063 230.75 65.3568 219.147 52.9674 219.344C39.7915 219.54 47.6577 226.817 53.1641 229.767C59.8504 233.503 67.52 247.466 69.2899 251.989C72.4364 260.838 82.6625 277.751 122.19 270.474C122.19 283.65 122.387 296.04 122.387 299.776C122.387 303.906 119.437 308.626 111.571 307.249C80.2365 296.819 52.9818 276.787 33.6733 249.995C14.3647 223.203 3.98268 191.012 4.00002 157.987C4.00002 71.065 74.4029 0.662109 161.325 0.662109Z" fill="#CDEB63"/>
</g>
<defs>
<filter id="filter0_d_4067_10" x="0" y="0.662109" width="322.65" height="314.888" filterUnits="userSpaceOnUse" color-interpolation-filters="sRGB">
<feFlood flood-opacity="0" result="BackgroundImageFix"/>
<feColorMatrix in="SourceAlpha" type="matrix" values="0 0 0 0 0 0 0 0 0 0 0 0 0 0 0 0 0 0 127 0" result="hardAlpha"/>
<feOffset dy="4"/>
<feGaussianBlur stdDeviation="2"/>
<feComposite in2="hardAlpha" operator="out"/>
<feColorMatrix type="matrix" values="0 0 0 0 0 0 0 0 0 0 0 0 0 0 0 0 0 0 0.25 0"/>
<feBlend mode="normal" in2="BackgroundImageFix" result="effect1_dropShadow_4067_10"/>
<feBlend mode="normal" in="SourceGraphic" in2="effect1_dropShadow_4067_10" result="shape"/>
</filter>
</defs>
</svg>
