<svg width="453" height="107" viewBox="0 0 453 107" fill="none" xmlns="http://www.w3.org/2000/svg">
<rect y="3" width="453" height="104" rx="52" fill="#0F0F0F"/>
<path d="M108.149 22.8H116.869V58.56H117.269L123.749 51.92L135.349 40.72H145.669L128.949 56.96L147.509 82H137.029L122.629 61.92L116.869 67.28V82H108.149V22.8ZM188.438 82C185.931 82 184.038 81.36 182.758 80.08C181.531 78.8 180.785 77.12 180.518 75.04H180.118C179.318 77.5467 177.851 79.4933 175.718 80.88C173.638 82.2667 170.971 82.96 167.718 82.96C163.505 82.96 160.145 81.8667 157.638 79.68C155.131 77.44 153.878 74.3733 153.878 70.48C153.878 66.48 155.345 63.44 158.278 61.36C161.265 59.2267 165.825 58.16 171.958 58.16H179.878V54.96C179.878 49.36 176.918 46.56 170.998 46.56C168.331 46.56 166.171 47.0933 164.518 48.16C162.865 49.1733 161.478 50.5333 160.358 52.24L155.158 48C156.331 45.76 158.305 43.84 161.078 42.24C163.851 40.5867 167.425 39.76 171.798 39.76C177.025 39.76 181.131 41.0133 184.118 43.52C187.105 46.0267 188.598 49.6533 188.598 54.4V75.12H193.798V82H188.438ZM170.198 76.56C173.025 76.56 175.345 75.92 177.158 74.64C178.971 73.36 179.878 71.7067 179.878 69.68V63.68H172.118C165.825 63.68 162.678 65.5733 162.678 69.36V70.96C162.678 72.8267 163.345 74.24 164.678 75.2C166.011 76.1067 167.851 76.56 170.198 76.56ZM203.127 74.96H214.087V47.76H203.127V40.72H222.807V51.68H223.287C223.66 50.24 224.194 48.8533 224.887 47.52C225.58 46.1867 226.46 45.04 227.527 44.08C228.594 43.0667 229.9 42.2667 231.447 41.68C232.994 41.04 234.807 40.72 236.887 40.72H241.847V49.04H233.687C230.487 49.04 227.874 50 225.847 51.92C223.82 53.7867 222.807 56.32 222.807 59.52V74.96H237.767V82H203.127V74.96ZM284.376 82C281.869 82 279.976 81.36 278.696 80.08C277.469 78.8 276.722 77.12 276.456 75.04H276.056C275.256 77.5467 273.789 79.4933 271.656 80.88C269.576 82.2667 266.909 82.96 263.656 82.96C259.442 82.96 256.082 81.8667 253.576 79.68C251.069 77.44 249.816 74.3733 249.816 70.48C249.816 66.48 251.282 63.44 254.216 61.36C257.202 59.2267 261.762 58.16 267.896 58.16H275.816V54.96C275.816 49.36 272.856 46.56 266.936 46.56C264.269 46.56 262.109 47.0933 260.456 48.16C258.802 49.1733 257.416 50.5333 256.296 52.24L251.096 48C252.269 45.76 254.242 43.84 257.016 42.24C259.789 40.5867 263.362 39.76 267.736 39.76C272.962 39.76 277.069 41.0133 280.056 43.52C283.042 46.0267 284.536 49.6533 284.536 54.4V75.12H289.736V82H284.376ZM266.136 76.56C268.962 76.56 271.282 75.92 273.096 74.64C274.909 73.36 275.816 71.7067 275.816 69.68V63.68H268.056C261.762 63.68 258.616 65.5733 258.616 69.36V70.96C258.616 72.8267 259.282 74.24 260.616 75.2C261.949 76.1067 263.789 76.56 266.136 76.56ZM299.704 82V26.16H320.584C325.918 26.16 329.971 27.6533 332.744 30.64C335.571 33.6267 336.984 37.7333 336.984 42.96C336.984 48.1867 335.571 52.2933 332.744 55.28C329.971 58.2667 325.918 59.76 320.584 59.76H308.664V82H299.704ZM308.664 52.32H319.224C324.771 52.32 327.544 49.76 327.544 44.64V41.2C327.544 36.1333 324.771 33.6 319.224 33.6H308.664V52.32ZM384.553 82H345.993V73.44L364.233 57.52C367.113 54.96 369.326 52.5333 370.873 50.24C372.473 47.9467 373.273 45.52 373.273 42.96V42.08C373.273 39.1467 372.473 36.9067 370.873 35.36C369.273 33.76 366.953 32.96 363.913 32.96C360.82 32.96 358.42 33.7867 356.713 35.44C355.06 37.0933 353.86 39.2 353.113 41.76L345.273 38.8C345.806 37.04 346.58 35.36 347.593 33.76C348.606 32.1067 349.886 30.64 351.433 29.36C353.033 28.08 354.9 27.0667 357.033 26.32C359.22 25.5733 361.726 25.2 364.553 25.2C367.433 25.2 369.993 25.6267 372.233 26.48C374.526 27.28 376.446 28.4 377.993 29.84C379.54 31.28 380.713 33.0133 381.513 35.04C382.313 37.0133 382.713 39.2 382.713 41.6C382.713 43.84 382.366 45.92 381.673 47.84C381.033 49.7067 380.1 51.52 378.873 53.28C377.7 54.9867 376.286 56.64 374.633 58.24C372.98 59.84 371.166 61.44 369.193 63.04L355.673 74.4H384.553V82ZM395.642 82V26.16H416.522C421.855 26.16 425.909 27.6533 428.682 30.64C431.509 33.6267 432.922 37.7333 432.922 42.96C432.922 48.1867 431.509 52.2933 428.682 55.28C425.909 58.2667 421.855 59.76 416.522 59.76H404.602V82H395.642ZM404.602 52.32H415.162C420.709 52.32 423.482 49.76 423.482 44.64V41.2C423.482 36.1333 420.709 33.6 415.162 33.6H404.602V52.32Z" fill="white"/>
<path fill-rule="evenodd" clip-rule="evenodd" d="M20.568 23.568C3.81065 40.3254 3.81065 67.4946 20.568 84.2519C37.3254 101.009 64.4946 101.009 81.2519 84.2519C98.0093 67.4946 98.0093 40.3254 81.2519 23.568C64.4946 6.81065 37.3254 6.81065 20.568 23.568ZM21.4979 41.1013C43.361 41.4954 71.822 42.0086 71.822 21.5C71.822 25.6312 71.6605 29.2425 71.5199 32.388C70.8707 46.9038 70.6652 51.5 88.822 51.5C66.7306 51.5 47.5 69.304 47.5 92.5C47.5 69.304 35.4134 41 13.322 41C15.8814 41 18.633 41.0496 21.4979 41.1013Z" fill="#CCFF00"/>
</svg>
